<svg width="24" height="24" viewBox="0 0 256 262" xmlns="http://www.w3.org/2000/svg">
  <path fill="#4285F4" d="M255.68 133.5c0-11.62-.93-20.14-2.95-28.93H130.5v54.25h70.63c-1.43 12-9.13 29.93-26.24 42.06l-.24 1.53 38.09 29.51 2.64.26c24.26-22.39 38.1-55.41 38.1-98.68"></path>
  <path fill="#34A853" d="M130.5 261c34.58 0 63.54-11.45 84.72-31.17l-40.38-31.25c-10.76 7.48-25.2 12.73-44.34 12.73-33.94 0-62.73-22.82-72.97-54.64l-1.51.13-41.48 32.15-.54 1.45C34.9 232.37 79.33 261 130.5 261"></path>
  <path fill="#FBBC05" d="M57.53 156.72a77.3 77.3 0 0 1-4.08-25.22c0-8.77 1.49-17.25 4.03-25.22l-.07-1.69-42.1-32.6-.79 1.32a130.38 130.38 0 0 0-14.52 57.2c0 20.27 4.89 39.4 13.42 56.4l39.91-30.19"></path>
  <path fill="#EB4335" d="M130.5 50.75c23.97 0 40.15 10.37 49.38 19.05l36.03-35.23C194.02 13.34 165.08 0 130.5 0 79.33 0 34.9 28.63 14.96 70.57l42.1 32.6c10.24-31.82 39.03-54.42 73.44-54.42"></path>
</svg>
